<?xml version="1.0" standalone="no"?>
<!DOCTYPE svg PUBLIC "-//W3C//DTD SVG 20010904//EN"
 "http://www.w3.org/TR/2001/REC-SVG-20010904/DTD/svg10.dtd">
<svg version="1.0" xmlns="http://www.w3.org/2000/svg"
 width="130.000000pt" height="130.000000pt" viewBox="0 0 130.000000 130.000000"
 preserveAspectRatio="xMidYMid meet">
<metadata>
Created by potrace 1.11, written by Peter Selinger 2001-2013
</metadata>
<g transform="translate(0.000000,130.000000) scale(0.100000,-0.100000)"
fill="#000000" stroke="none">
<path d="M10 1021 c0 -251 2 -284 19 -323 25 -59 109 -148 189 -202 127 -85
152 -117 152 -200 0 -49 -25 -87 -70 -111 -42 -22 -152 -13 -228 17 l-63 26 3
-107 3 -106 265 0 c186 -1 284 3 330 13 36 7 74 15 85 18 51 10 166 78 211
124 90 93 114 172 103 340 -7 108 -102 219 -249 292 -52 25 -106 49 -120 53
-58 17 -172 79 -195 107 -33 39 -37 97 -9 125 8 8 14 18 14 22 0 4 19 17 42
27 66 29 208 25 316 -10 46 -15 85 -26 87 -24 3 3 44 152 50 181 4 16 -24 17
-466 17 l-469 0 0 -279z"/>
<path d="M773 1054 c-2 -6 -3 -61 -1 -120 l3 -109 165 0 165 0 0 -410 0 -410
95 0 95 0 3 530 2 531 -261 0 c-193 0 -262 -3 -266 -12z"/>
</g>
</svg>
